<svg width="343" height="261" viewBox="0 0 343 261" fill="none" xmlns="http://www.w3.org/2000/svg">
<path d="M307.949 244.482L308.935 244.463C308.554 233.496 307.384 222.571 305.434 211.771C301.169 188.65 294.076 173.466 284.354 166.639L283.787 167.446C306.499 183.393 307.937 243.873 307.949 244.482Z" fill="#2F2E41"/>
<path d="M295.619 244.246L296.606 244.227C296.584 243.135 295.968 217.391 285.833 210.275L285.267 211.082C294.993 217.911 295.614 243.984 295.619 244.246Z" fill="#2F2E41"/>
<path d="M278.176 167.536C280.899 167.536 283.107 165.327 283.107 162.604C283.107 159.88 280.899 157.672 278.176 157.672C275.452 157.672 273.244 159.88 273.244 162.604C273.244 165.327 275.452 167.536 278.176 167.536Z" fill="#004D61"/>
<path d="M280.618 209.95C283.342 209.95 285.55 207.742 285.55 205.018C285.55 202.294 283.342 200.086 280.618 200.086C277.894 200.086 275.686 202.294 275.686 205.018C275.686 207.742 277.894 209.95 280.618 209.95Z" fill="#004D61"/>
<path d="M297.918 170.492C296.991 176.412 299.407 181.707 299.407 181.707C299.407 181.707 303.325 177.404 304.252 171.484C305.179 165.563 302.763 160.268 302.763 160.268C302.763 160.268 298.845 164.572 297.918 170.492Z" fill="#2F2E41"/>
<path d="M281.797 184.87C287.465 186.814 293.1 185.358 293.1 185.358C293.1 185.358 289.545 180.75 283.877 178.806C278.209 176.861 272.574 178.318 272.574 178.318C272.574 178.318 276.129 182.926 281.797 184.87Z" fill="#2F2E41"/>
<path d="M281.615 222.432C284.18 223.238 286.912 223.356 289.538 222.774C287.871 220.652 285.626 219.057 283.073 218.181C280.52 217.306 277.769 217.187 275.15 217.839C276.866 219.91 279.095 221.493 281.615 222.432Z" fill="#2F2E41"/>
<path d="M110.549 54.7273C111.69 54.4649 113.727 54.7154 117.025 57.3279C120.351 59.9616 124.677 64.209 128.185 67.8123C129.935 69.6109 131.477 71.244 132.581 72.4275C133.133 73.0192 133.576 73.4987 133.88 73.8298C134.032 73.9953 134.15 74.1237 134.229 74.2107C134.269 74.254 134.299 74.2871 134.319 74.3093C134.329 74.3203 134.337 74.3291 134.342 74.3347L134.35 74.3425L134.41 74.4089L134.489 74.45L166.286 90.9851L166.481 91.0857L166.688 91.0115C167.526 90.7079 168.434 90.6489 169.305 90.8406C170.176 91.0323 170.975 91.4669 171.608 92.0945C172.242 92.7222 172.686 93.5172 172.886 94.3865C173.086 95.2556 173.035 96.1641 172.739 97.0056C172.444 97.8472 171.915 98.588 171.216 99.1414C170.516 99.6946 169.674 100.038 168.787 100.132C167.9 100.225 167.005 100.065 166.205 99.6707C165.405 99.2758 164.733 98.6624 164.269 97.9011L164.181 97.7576L164.024 97.696L131.22 84.8464L112.93 69.3572L106.345 60.2L108.995 55.7839L109.002 55.7722L109.007 55.7605C109.008 55.761 109.008 55.7614 109.008 55.7615L109.007 55.7625V55.7634C109.008 55.7609 109.011 55.7545 109.017 55.7458C109.027 55.7283 109.046 55.6992 109.073 55.6619C109.127 55.587 109.214 55.4798 109.337 55.363C109.582 55.1303 109.973 54.8597 110.549 54.7273Z" stroke="#DEE9EA"/>
<path d="M75.9507 63.8248C76.1206 63.8203 76.2579 63.8345 76.3491 63.8492C76.3943 63.8565 76.4277 63.864 76.4478 63.8688C76.4556 63.8707 76.4619 63.8718 76.4653 63.8727L76.4907 63.8805L81.4868 65.1285L83.3062 76.2604L81.3247 100.147L67.2153 132.428L67.1479 132.583L67.188 132.748C67.4006 133.617 67.3613 134.529 67.0757 135.378C66.79 136.226 66.2691 136.977 65.5737 137.541C64.8784 138.104 64.037 138.459 63.1479 138.563C62.2588 138.667 61.3583 138.517 60.5513 138.13C59.7442 137.742 59.0637 137.133 58.5894 136.374C58.115 135.614 57.866 134.736 57.8716 133.84C57.8772 132.945 58.137 132.07 58.6206 131.317C59.1043 130.564 59.7923 129.963 60.604 129.586L60.8042 129.492L60.8706 129.282L71.6626 95.1071L71.689 95.0211L71.6851 94.9323V94.9205C71.6847 94.913 71.6838 94.902 71.6831 94.8873C71.6817 94.8573 71.6799 94.8123 71.6772 94.7535C71.6719 94.6358 71.6642 94.4615 71.6548 94.2369C71.6359 93.7876 71.6096 93.1355 71.5815 92.3268C71.5254 90.7093 71.4601 88.4644 71.4263 85.9547C71.3584 80.9268 71.4149 74.8646 71.9038 70.651C72.3889 66.4706 73.6527 64.8522 74.645 64.2311C75.1453 63.918 75.6127 63.8338 75.9507 63.8248Z" stroke="#DEE9EA"/>
<path d="M137.475 211.536L134.29 237.365H128.277L128.275 211.536H137.475Z" stroke="#DEE9EA"/>
<path d="M126.002 235.594L139.701 235.593H139.701C142.016 235.594 144.237 236.513 145.874 238.15C147.511 239.787 148.431 242.008 148.431 244.323V244.607L126.003 244.607L126.002 235.594Z" fill="#2F2E41"/>
<path d="M61.6094 211.536L58.4238 237.365H52.4102L52.4092 211.536H61.6094Z" stroke="#DEE9EA"/>
<path d="M50.136 235.594L63.8343 235.593H63.8348C66.15 235.594 68.3704 236.513 70.0075 238.15C71.6445 239.787 72.5643 242.008 72.5645 244.323V244.607L50.1364 244.607L50.136 235.594Z" fill="#2F2E41"/>
<path d="M86.2492 53.2347L74.7122 63.0833L84.1804 93.0457L86.3167 99.7364C86.3167 99.7364 73.2719 111.764 65.2005 145.362C57.1291 178.96 43.9253 223.605 43.9253 223.605L71.7963 231.583L94.4712 155.58L121.142 215.206L124.222 232.842L147.957 225.844L142.358 181.614L114.364 105.051L117.272 84.7557C117.272 84.7557 121.639 74.6255 114.053 63.9004L111.673 53.8227L103.149 51.7231L86.2492 53.2347Z" fill="#2F2E41"/>
<path d="M89.8193 14.5C94.4647 14.5 98.9202 16.3452 102.205 19.6299C105.49 22.9147 107.336 27.3702 107.336 32.0156V45.4609C107.335 45.9698 107.132 46.4575 106.772 46.8174C106.412 47.1774 105.924 47.3803 105.415 47.3809H74.2246C73.7154 47.3803 73.2273 47.1774 72.8672 46.8174C72.5522 46.5024 72.3576 46.0897 72.3135 45.6504L72.3037 45.46V32.0156C72.3038 27.3702 74.1488 22.9147 77.4336 19.6299C80.7184 16.3451 85.1739 14.5001 89.8193 14.5Z" stroke="#DEE9EA"/>
<path d="M105.112 40.6946C108.611 34.2936 106.259 26.268 99.8576 22.7689C93.4566 19.2698 85.431 21.6223 81.9319 28.0233C78.4328 34.4242 80.7852 42.4499 87.1862 45.949C93.5872 49.4481 101.613 47.0956 105.112 40.6946Z" fill="#004D61"/>
<path d="M99.12 40.8664C99.4459 40.7404 99.7436 40.5388 99.993 40.275C100.158 40.0869 100.284 39.8612 100.362 39.6137C100.44 39.3662 100.468 39.1029 100.444 38.8422C100.43 38.6564 100.377 38.4766 100.29 38.317C100.203 38.1573 100.084 38.0221 99.9416 37.9219C99.5726 37.6711 99.085 37.6805 98.5927 37.9328L98.5359 33.5331L98.1361 33.5394L98.2029 38.7117L98.5073 38.4911C98.8602 38.2356 99.3673 38.0504 99.7321 38.2984C99.8223 38.3641 99.8977 38.4519 99.9522 38.555C100.007 38.6581 100.039 38.7737 100.047 38.8928C100.063 39.0871 100.042 39.283 99.9843 39.4673C99.9265 39.6517 99.8334 39.8201 99.7114 39.9611C99.278 40.4365 98.6365 40.5958 97.9043 40.7415L97.9751 41.1765C98.3644 41.1111 98.7475 41.0074 99.12 40.8664Z" fill="#DEE9EA"/>
<path d="M105.475 34.3824L102.019 34.9058L102.116 35.5474L105.572 35.024L105.475 34.3824Z" fill="#DEE9EA"/>
<path d="M87.8104 34.3824L91.2664 34.9058L91.1692 35.5474L87.7133 35.024L87.8104 34.3824Z" fill="#DEE9EA"/>
<path d="M97.8455 19.3401L98.1873 19.345C101.709 19.4362 105.068 20.8749 107.565 23.3723C110.089 25.8958 111.531 29.2984 111.594 32.8606H93.49L93.3279 30.5862L92.3582 30.4543L91.4988 32.8606H89.3796L89.0251 27.8977L88.0564 27.7649L86.2361 32.8606H81.4089C81.4728 29.2984 82.9148 25.8958 85.4382 23.3723C87.9357 20.8749 91.2941 19.4363 94.8162 19.345L95.158 19.3401H97.8455Z" stroke="#DEE9EA"/>
<path d="M208.368 171.399L85.9681 214.674C82.9417 215.74 79.6161 215.562 76.7207 214.18C73.8254 212.797 71.5967 210.322 70.5238 207.298L49.4972 147.827C48.4311 144.801 48.6089 141.475 49.9917 138.58C51.3745 135.684 53.8493 133.456 56.8732 132.383L179.273 89.1073C182.299 88.0412 185.625 88.219 188.52 89.6018C191.416 90.9846 193.644 93.4594 194.717 96.4833L215.744 155.954C216.81 158.981 216.632 162.306 215.249 165.202C213.866 168.097 211.392 170.326 208.368 171.399Z" fill="white"/>
<path d="M215.744 155.954L215.855 156.269C216.876 159.159 216.708 162.337 215.386 165.102C214.065 167.868 211.699 169.996 208.809 171.017L85.7968 214.509C82.9073 215.53 79.7305 215.362 76.965 214.041C74.1995 212.721 72.0718 210.355 71.05 207.466L70.9387 207.151L215.744 155.954Z" fill="#F2F2F2"/>
<path d="M78.3297 146.191C70.2165 151.529 59.8182 147.512 56.1816 141.66L56.7614 141.33C63.6685 137.025 73.9261 139.423 78.3297 146.191Z" fill="#004D61"/>
<path d="M180 161.337C178.014 162.039 176.226 162.007 174.685 161.241C171.202 159.511 169.568 154.379 168.254 150.255C167.872 149.056 167.511 147.923 167.144 146.997L167.138 146.982C166.499 145.145 166.61 143.13 167.448 141.374C168.286 139.619 169.783 138.265 171.613 137.606L188.077 131.785C190.06 131.084 191.847 131.116 193.386 131.88C196.869 133.609 198.505 138.739 199.819 142.861C200.202 144.063 200.564 145.198 200.933 146.126C201.576 147.965 201.467 149.983 200.629 151.742C199.792 153.501 198.293 154.858 196.46 155.517L180 161.337ZM167.828 146.733C168.204 147.681 168.568 148.824 168.953 150.033C170.224 154.024 171.807 158.992 175.012 160.584C176.387 161.268 177.939 161.288 179.756 160.646L196.215 154.826C197.863 154.234 199.211 153.014 199.966 151.433C200.721 149.852 200.822 148.037 200.246 146.382C199.873 145.445 199.508 144.298 199.12 143.084C197.848 139.094 196.264 134.128 193.06 132.537C191.686 131.855 190.136 131.835 188.322 132.477L171.859 138.297C170.212 138.89 168.865 140.108 168.111 141.687C167.356 143.266 167.255 145.08 167.828 146.733Z" fill="#3F3D56"/>
<path d="M74.9173 148.113C72.0243 149.116 68.9078 149.287 65.9222 148.607C61.5621 147.65 57.6051 145.047 55.5957 141.814L55.3943 141.49L56.2992 140.975C63.3102 136.609 73.8235 138.976 78.3614 145.948L78.5604 146.254L78.2557 146.454C77.2142 147.14 76.0932 147.697 74.9173 148.113ZM56.426 141.747C58.3926 144.669 62.052 147.006 66.0795 147.891C69.9946 148.805 74.1122 148.141 77.5408 146.041C73.1019 139.62 63.2673 137.491 56.6811 141.602L56.426 141.747Z" fill="#3F3D56"/>
<path d="M79.2175 190.797C78.1896 191.204 77.0704 191.324 75.9799 191.142C74.8894 190.961 73.8688 190.487 73.0276 189.77C72.043 188.909 71.2966 187.809 70.8603 186.577C70.4241 185.344 70.3126 184.02 70.5367 182.731C70.7449 181.623 71.2559 180.594 72.0132 179.758C72.7704 178.922 73.7442 178.312 74.8269 177.995L96.7633 170.24C97.8044 169.808 98.9443 169.672 100.058 169.848C101.171 170.023 102.214 170.502 103.072 171.232C104.056 172.093 104.802 173.193 105.238 174.426C105.674 175.658 105.785 176.982 105.56 178.27C105.127 180.534 103.599 182.202 101.269 183L79.3322 190.756C79.2939 190.77 79.2557 190.784 79.2175 190.797ZM74.9633 178.724C74.0273 179.013 73.1877 179.552 72.5347 180.282C71.8818 181.012 71.4401 181.906 71.2572 182.869C71.0553 184.029 71.1557 185.223 71.5488 186.333C71.9419 187.444 72.6143 188.434 73.5014 189.209C74.2618 189.854 75.1858 190.275 76.1709 190.426C77.156 190.577 78.1638 190.453 79.0825 190.066L101.03 182.307C101.988 182.03 102.851 181.494 103.524 180.757C104.196 180.021 104.652 179.112 104.84 178.133C105.042 176.972 104.942 175.779 104.549 174.669C104.157 173.558 103.485 172.567 102.598 171.792C101.837 171.148 100.912 170.727 99.9268 170.575C98.9413 170.423 97.9329 170.545 97.0127 170.929L75.0641 178.689C75.0304 178.701 74.9966 178.712 74.9633 178.724L74.9633 178.724Z" fill="#3F3D56"/>
<path d="M180.147 143.839L173.232 146.284C172.774 146.446 172.269 146.42 171.831 146.21C171.392 146 171.054 145.625 170.892 145.167C170.73 144.708 170.757 144.204 170.966 143.765C171.176 143.326 171.551 142.989 172.01 142.827L178.925 140.382C179.383 140.219 179.887 140.246 180.326 140.456C180.765 140.665 181.103 141.041 181.265 141.499C181.427 141.958 181.4 142.462 181.191 142.901C180.981 143.34 180.606 143.677 180.147 143.839Z" fill="#004D61"/>
<path d="M182.103 149.371L175.188 151.816C174.729 151.978 174.225 151.952 173.786 151.742C173.348 151.533 173.01 151.157 172.848 150.699C172.686 150.24 172.712 149.736 172.922 149.297C173.132 148.858 173.507 148.521 173.965 148.359L180.881 145.914C181.339 145.752 181.843 145.778 182.282 145.988C182.721 146.197 183.059 146.573 183.221 147.031C183.383 147.49 183.356 147.994 183.147 148.433C182.937 148.872 182.562 149.209 182.103 149.371Z" fill="#004D61"/>
<path d="M184.059 154.904L177.144 157.349C176.917 157.429 176.676 157.464 176.436 157.451C176.195 157.438 175.96 157.378 175.742 157.274C175.525 157.171 175.33 157.025 175.169 156.846C175.008 156.667 174.884 156.458 174.804 156.231C174.724 156.004 174.689 155.763 174.702 155.523C174.714 155.282 174.774 155.047 174.878 154.829C174.982 154.612 175.127 154.417 175.306 154.256C175.485 154.095 175.694 153.971 175.921 153.891L182.837 151.446C183.064 151.366 183.304 151.331 183.545 151.344C183.785 151.356 184.021 151.416 184.238 151.52C184.455 151.624 184.65 151.769 184.811 151.948C184.972 152.127 185.096 152.336 185.177 152.563C185.257 152.791 185.292 153.031 185.279 153.272C185.266 153.512 185.206 153.748 185.103 153.965C184.999 154.182 184.853 154.377 184.674 154.538C184.495 154.699 184.286 154.823 184.059 154.904Z" fill="#004D61"/>
<path d="M192.249 139.561L185.334 142.006C185.107 142.086 184.866 142.121 184.625 142.108C184.385 142.095 184.149 142.035 183.932 141.931C183.715 141.828 183.52 141.682 183.359 141.503C183.198 141.324 183.074 141.115 182.994 140.888C182.913 140.661 182.879 140.42 182.891 140.18C182.904 139.939 182.964 139.704 183.068 139.487C183.171 139.269 183.317 139.075 183.496 138.914C183.675 138.752 183.884 138.628 184.111 138.548L191.026 136.103C191.485 135.941 191.989 135.968 192.428 136.177C192.867 136.387 193.204 136.762 193.366 137.221C193.529 137.679 193.502 138.183 193.292 138.622C193.083 139.061 192.707 139.399 192.249 139.561Z" fill="#004D61"/>
<path d="M194.205 145.093L187.29 147.538C187.063 147.618 186.822 147.653 186.582 147.64C186.341 147.627 186.105 147.567 185.888 147.464C185.671 147.36 185.476 147.214 185.315 147.035C185.154 146.856 185.03 146.647 184.95 146.42C184.869 146.193 184.835 145.953 184.847 145.712C184.86 145.472 184.92 145.236 185.024 145.019C185.128 144.801 185.273 144.607 185.452 144.446C185.631 144.285 185.84 144.16 186.067 144.08L192.982 141.635C193.209 141.555 193.45 141.52 193.691 141.533C193.931 141.546 194.167 141.606 194.384 141.709C194.601 141.813 194.796 141.959 194.957 142.138C195.118 142.317 195.242 142.526 195.322 142.753C195.403 142.98 195.437 143.22 195.425 143.461C195.412 143.701 195.352 143.937 195.248 144.154C195.145 144.372 194.999 144.566 194.82 144.727C194.641 144.888 194.432 145.013 194.205 145.093Z" fill="#004D61"/>
<path d="M196.161 150.625L189.245 153.07C188.787 153.232 188.283 153.205 187.844 152.996C187.405 152.786 187.068 152.411 186.905 151.952C186.743 151.494 186.77 150.99 186.98 150.551C187.189 150.112 187.564 149.774 188.023 149.612L194.938 147.167C195.165 147.087 195.406 147.052 195.646 147.065C195.887 147.078 196.122 147.138 196.34 147.242C196.557 147.345 196.752 147.491 196.913 147.67C197.074 147.849 197.198 148.058 197.278 148.285C197.359 148.512 197.393 148.753 197.381 148.993C197.368 149.234 197.308 149.469 197.204 149.686C197.1 149.904 196.955 150.098 196.776 150.26C196.597 150.421 196.388 150.545 196.161 150.625Z" fill="#004D61"/>
<path d="M199.296 109.429L54.4902 160.626L54.7347 161.318L199.54 110.12L199.296 109.429Z" fill="#3F3D56"/>
<path d="M208.368 171.399L85.9681 214.674C82.9417 215.74 79.6161 215.562 76.7207 214.18C73.8254 212.797 71.5967 210.322 70.5238 207.298L49.4972 147.827C48.4311 144.801 48.6089 141.475 49.9917 138.58C51.3745 135.684 53.8493 133.456 56.8732 132.383L179.273 89.1073C182.299 88.0412 185.625 88.219 188.52 89.6018C191.416 90.9846 193.644 93.4594 194.717 96.4833L215.744 155.954C216.81 158.981 216.632 162.306 215.249 165.202C213.866 168.097 211.392 170.326 208.368 171.399ZM57.1177 133.074C54.2771 134.082 51.9523 136.176 50.6533 138.896C49.3543 141.616 49.1873 144.74 50.1888 147.583L71.2153 207.054C72.2233 209.894 74.3168 212.219 77.0367 213.518C79.7566 214.817 82.8807 214.984 85.7236 213.983L208.123 170.707C210.964 169.699 213.289 167.606 214.588 164.886C215.887 162.166 216.054 159.042 215.052 156.199L194.026 96.7278C193.018 93.8872 190.924 91.5624 188.204 90.2634C185.484 88.9644 182.36 88.7974 179.517 89.7989L57.1177 133.074Z" fill="#3F3D56"/>
<path d="M333.556 245H6.62743C6.50978 245 6.39695 244.955 6.31376 244.876C6.23057 244.796 6.18384 244.688 6.18384 244.575C6.18384 244.463 6.23057 244.355 6.31376 244.275C6.39695 244.195 6.50978 244.151 6.62743 244.151H333.556C333.674 244.151 333.787 244.195 333.87 244.275C333.953 244.355 334 244.463 334 244.575C334 244.688 333.953 244.796 333.87 244.876C333.787 244.955 333.674 245 333.556 245Z" fill="#444444"/>
</svg>
